<svg xmlns="http://www.w3.org/2000/svg" width="2400" height="1350" viewBox="0 0 2400 1350" role="img" aria-label="Frankfurt skyline with blue tech-circuits">
  <defs>
    <linearGradient id="g0" x1="0" y1="0" x2="1" y2="1">
      <stop offset="0" stop-color="#05070c"/>
      <stop offset="1" stop-color="#0b1020"/>
    </linearGradient>
    <radialGradient id="goldGlow" cx="30%" cy="24%" r="70%">
      <stop offset="0" stop-color="rgba(212,175,55,.26)"/>
      <stop offset="0.55" stop-color="rgba(212,175,55,.08)"/>
      <stop offset="1" stop-color="rgba(212,175,55,0)"/>
    </radialGradient>
    <radialGradient id="blueGlow" cx="80%" cy="18%" r="70%">
      <stop offset="0" stop-color="rgba(120,180,255,.10)"/>
      <stop offset="1" stop-color="rgba(120,180,255,0)"/>
    </radialGradient>
    <filter id="blur" x="-20%" y="-20%" width="140%" height="140%">
      <feGaussianBlur stdDeviation="8"/>
    </filter>
  </defs>

  <rect width="2400" height="1350" fill="url(#g0)"/>
  <rect width="2400" height="1350" fill="url(#goldGlow)"/>
  <rect width="2400" height="1350" fill="url(#blueGlow)"/>

  <g opacity="0.8"><path d="M 769.9 629.9 Q 1299.0 73.0 2341.1 -47.4" stroke="rgba(243,210,122,0.063)" stroke-width="1.97" fill="none"/><path d="M 179.4 1067.6 Q 661.5 777.8 673.8 267.0" stroke="rgba(243,210,122,0.066)" stroke-width="1.33" fill="none"/><path d="M 243.2 356.6 Q 470.0 714.6 429.1 1019.9" stroke="rgba(243,210,122,0.132)" stroke-width="1.24" fill="none"/><path d="M 1520.1 307.6 Q 1687.7 163.6 2465.7 63.9" stroke="rgba(243,210,122,0.131)" stroke-width="1.35" fill="none"/><path d="M 1285.0 -53.3 Q 879.7 353.7 910.7 474.0" stroke="rgba(243,210,122,0.119)" stroke-width="1.67" fill="none"/><path d="M 2047.6 484.5 Q 2083.4 279.4 1575.0 432.7" stroke="rgba(243,210,122,0.138)" stroke-width="1.56" fill="none"/><path d="M 1236.9 540.5 Q 1550.7 756.7 1457.0 1128.2" stroke="rgba(243,210,122,0.125)" stroke-width="1.16" fill="none"/><path d="M 1691.4 1302.8 Q 723.1 771.7 55.0 88.8" stroke="rgba(243,210,122,0.064)" stroke-width="2.16" fill="none"/><path d="M 283.1 899.2 Q 1105.6 956.7 1371.0 843.6" stroke="rgba(243,210,122,0.084)" stroke-width="1.55" fill="none"/><path d="M 1892.6 487.0 Q 2319.5 1067.7 1997.6 1273.7" stroke="rgba(243,210,122,0.069)" stroke-width="1.47" fill="none"/><path d="M 581.6 307.1 Q 1127.9 304.7 1017.0 483.7" stroke="rgba(243,210,122,0.139)" stroke-width="1.36" fill="none"/><path d="M -183.7 544.9 Q 429.5 832.8 1532.8 1308.6" stroke="rgba(243,210,122,0.131)" stroke-width="1.23" fill="none"/><path d="M 696.2 658.1 Q 1592.6 449.7 1973.3 461.9" stroke="rgba(243,210,122,0.131)" stroke-width="2.12" fill="none"/><path d="M 1360.9 903.8 Q 575.1 634.0 133.8 300.7" stroke="rgba(243,210,122,0.064)" stroke-width="1.74" fill="none"/></g>
  <g><circle cx="1645.5" cy="1055.9" r="6.0" fill="rgba(212,175,55,0.129)"/><circle cx="2262.6" cy="304.4" r="2.2" fill="rgba(212,175,55,0.109)"/><circle cx="1585.3" cy="670.2" r="5.8" fill="rgba(212,175,55,0.088)"/><circle cx="2290.2" cy="996.0" r="4.6" fill="rgba(212,175,55,0.080)"/><circle cx="523.4" cy="739.8" r="2.7" fill="rgba(212,175,55,0.070)"/><circle cx="179.7" cy="1038.2" r="2.0" fill="rgba(212,175,55,0.078)"/><circle cx="827.2" cy="751.7" r="3.1" fill="rgba(212,175,55,0.106)"/><circle cx="1409.2" cy="278.6" r="5.0" fill="rgba(212,175,55,0.102)"/><circle cx="273.2" cy="353.5" r="4.0" fill="rgba(212,175,55,0.065)"/><circle cx="919.4" cy="636.9" r="5.0" fill="rgba(212,175,55,0.128)"/><circle cx="1338.2" cy="732.1" r="2.4" fill="rgba(212,175,55,0.105)"/><circle cx="2315.7" cy="1233.9" r="5.0" fill="rgba(212,175,55,0.087)"/><circle cx="1116.4" cy="1259.3" r="4.3" fill="rgba(212,175,55,0.100)"/><circle cx="1071.7" cy="425.1" r="2.7" fill="rgba(212,175,55,0.064)"/><circle cx="143.7" cy="994.8" r="3.9" fill="rgba(212,175,55,0.105)"/><circle cx="112.4" cy="236.8" r="3.0" fill="rgba(212,175,55,0.096)"/><circle cx="1531.9" cy="349.7" r="3.0" fill="rgba(212,175,55,0.074)"/><circle cx="1148.3" cy="1118.3" r="2.7" fill="rgba(212,175,55,0.053)"/><circle cx="1214.9" cy="1126.4" r="3.7" fill="rgba(212,175,55,0.102)"/><circle cx="1813.2" cy="1185.4" r="2.4" fill="rgba(212,175,55,0.123)"/><circle cx="434.6" cy="275.9" r="4.0" fill="rgba(212,175,55,0.136)"/><circle cx="2315.7" cy="273.9" r="2.7" fill="rgba(212,175,55,0.079)"/><circle cx="268.1" cy="109.1" r="3.8" fill="rgba(212,175,55,0.133)"/><circle cx="595.3" cy="867.7" r="2.4" fill="rgba(212,175,55,0.100)"/><circle cx="2268.6" cy="1213.4" r="4.9" fill="rgba(212,175,55,0.077)"/><circle cx="1972.8" cy="145.6" r="5.8" fill="rgba(212,175,55,0.054)"/><circle cx="1459.5" cy="189.5" r="2.1" fill="rgba(212,175,55,0.136)"/><circle cx="1930.5" cy="640.0" r="5.5" fill="rgba(212,175,55,0.123)"/><circle cx="626.0" cy="23.6" r="2.2" fill="rgba(212,175,55,0.092)"/><circle cx="1595.0" cy="123.6" r="2.7" fill="rgba(212,175,55,0.080)"/><circle cx="1626.6" cy="1214.7" r="2.9" fill="rgba(212,175,55,0.128)"/><circle cx="314.9" cy="900.0" r="4.8" fill="rgba(212,175,55,0.081)"/><circle cx="1905.6" cy="509.7" r="3.2" fill="rgba(212,175,55,0.071)"/><circle cx="1585.5" cy="1207.9" r="5.3" fill="rgba(212,175,55,0.127)"/><circle cx="1189.5" cy="895.9" r="2.3" fill="rgba(212,175,55,0.111)"/><circle cx="377.0" cy="276.9" r="2.4" fill="rgba(212,175,55,0.102)"/><circle cx="1116.2" cy="673.0" r="2.8" fill="rgba(212,175,55,0.112)"/><circle cx="645.5" cy="674.7" r="6.0" fill="rgba(212,175,55,0.098)"/></g>

  <g filter="url(#blur)" opacity="0.9">
    <circle cx="1752.0" cy="621.0" r="210" fill="rgba(255,255,255,.04)"/>
  </g>

  <g><circle cx="1752.0" cy="621.0" r="160" fill="none" stroke="rgba(212,175,55,0.180)" stroke-width="1.2"/><circle cx="1752.0" cy="621.0" r="215" fill="none" stroke="rgba(212,175,55,0.150)" stroke-width="1.2"/><circle cx="1752.0" cy="621.0" r="270" fill="none" stroke="rgba(212,175,55,0.120)" stroke-width="1.2"/><circle cx="1752.0" cy="621.0" r="325" fill="none" stroke="rgba(212,175,55,0.090)" stroke-width="1.2"/></g>

  <g>
    <rect x="1562.0" y="555.0" width="380" height="132" rx="26" fill="rgba(255,255,255,.05)" stroke="rgba(255,255,255,.10)"/>
    <text x="1752.0" y="613.0" text-anchor="middle" font-family="ui-sans-serif,system-ui" font-size="50" fill="rgba(245,247,255,.92)" letter-spacing="2">W3</text>
    <text x="1752.0" y="655.0" text-anchor="middle" font-family="ui-sans-serif,system-ui" font-size="22" fill="rgba(245,247,255,.60)" letter-spacing="1">w3.immobilien</text>
  </g>

  <g opacity="0.9">
    <circle cx="432.0" cy="1053.0" r="280" fill="rgba(212,175,55,.06)"/>
    <circle cx="432.0" cy="1053.0" r="279" fill="none" stroke="rgba(255,255,255,.06)"/>
  </g>
</svg>